<svg id="Layer_1" enable-background="new 0 0 256 256" height="512" viewBox="0 0 256 256" width="512" xmlns="http://www.w3.org/2000/svg"><path d="m86.667 221.764-82.667-10.265v-158.346l82.667 10.264z" fill="#f4efed"/><path d="m14 211.499v-27.968-129.137l-10-1.241v158.346l10 1.241z" fill="#fff"/><path d="m4 106.568 52.714 7.123 15.018-14.424h14.935v-35.85l-82.667-10.264z" fill="#7bac51"/><path d="m252 211.499-82.667-10.265v-158.346l82.667 10.265z" fill="#f4efed"/><path d="m242 51.911v158.346l10 1.242v-158.346z" fill="#d6d1cf"/><path d="m210.667 206.367 10.711-42.307 30.622-19.842v67.281z" fill="#7bac51"/><path d="m169.333 201.234-82.666 20.53v-158.347l82.666-20.529z" fill="#f4efed"/><path d="m14 54.394-10-1.241v53.415l10 1.352z" fill="#99ca6f"/><path d="m86.667 99.267 46.627-15.845 36.039-40.534-82.666 20.529z" fill="#7bac51"/><path d="m242 150.697v59.56l10 1.242v-67.281z" fill="#5d8e33"/><g fill="#690589"><path d="m86.667 223.764c-.082 0-.164-.005-.247-.016l-82.667-10.265c-1.001-.124-1.753-.975-1.753-1.984v-158.347c0-.573.246-1.119.676-1.499.43-.379 1.001-.558 1.571-.485l82.667 10.265c1.001.124 1.753.976 1.753 1.984v158.347c0 .573-.246 1.119-.676 1.499-.368.324-.84.501-1.324.501zm-80.667-14.032 78.667 9.768v-154.316l-78.667-9.768z"/><path d="m86.667 223.764c-.442 0-.876-.146-1.232-.425-.485-.379-.768-.96-.768-1.575v-158.347c0-.919.626-1.72 1.518-1.941l82.667-20.529c.596-.146 1.229-.014 1.714.366.485.379.768.96.768 1.575v158.347c0 .919-.626 1.72-1.518 1.941l-82.667 20.529c-.16.039-.321.059-.482.059zm2-158.783v154.225l78.667-19.536v-154.225zm80.666 136.253h.01z"/><path d="m252 213.499c-.082 0-.164-.005-.247-.016l-82.667-10.265c-1.001-.124-1.753-.976-1.753-1.984v-158.346c0-.573.246-1.119.676-1.499.43-.379 1.002-.558 1.571-.485l82.667 10.265c1.001.124 1.753.976 1.753 1.984v158.347c0 .573-.246 1.119-.676 1.499-.367.323-.839.5-1.324.5zm-80.667-14.031 78.667 9.767v-154.316l-78.667-9.768z"/><path d="m56.713 115.691c-.089 0-.178-.006-.268-.018l-52.714-7.123c-.991-.134-1.731-.981-1.731-1.982v-53.416c0-.573.246-1.119.676-1.499.43-.379 1.001-.558 1.571-.485l82.667 10.265c1.001.124 1.753.976 1.753 1.984v35.851c0 1.104-.896 2-2 2h-14.13l-14.438 13.866c-.375.36-.872.557-1.386.557zm-50.713-10.871 50.024 6.76 14.322-13.755c.373-.357.869-.558 1.385-.558h12.935v-32.083l-78.666-9.768z"/><path d="m86.667 101.268c-.413 0-.821-.128-1.165-.374-.524-.376-.835-.981-.835-1.626v-35.851c0-.919.626-1.72 1.518-1.941l82.667-20.529c.852-.207 1.741.156 2.193.907.454.75.366 1.708-.217 2.363l-36.04 40.534c-.23.259-.523.453-.851.564l-46.627 15.846c-.21.071-.427.107-.643.107zm2-36.287v31.494l43.484-14.777 31.397-35.312z"/><path d="m252 213.499c-.082 0-.164-.005-.247-.016l-41.333-5.133c-.569-.07-1.081-.382-1.404-.855s-.429-1.063-.288-1.62l10.711-42.306c.124-.488.428-.913.852-1.188l30.623-19.843c.615-.399 1.4-.43 2.042-.078.644.35 1.045 1.024 1.045 1.757v67.281c0 .573-.246 1.119-.676 1.499-.368.325-.84.502-1.325.502zm-38.838-8.838 36.838 4.574v-61.339l-26.876 17.416z"/><path d="m14 137.178c-1.104 0-2-.896-2-2v-12c0-1.104.896-2 2-2s2 .896 2 2v12c0 1.104-.896 2-2 2z"/><path d="m50.516 163.916c-.137 0-.275-.014-.415-.043l-5.871-1.238c-1.081-.229-1.772-1.289-1.544-2.37.228-1.08 1.291-1.77 2.37-1.544l5.871 1.238c1.081.229 1.772 1.289 1.544 2.37-.199.941-1.03 1.587-1.955 1.587z"/><path d="m70.704 168.177c-.137 0-.275-.014-.415-.043l-10.094-2.13c-1.081-.228-1.772-1.289-1.544-2.37s1.286-1.771 2.37-1.544l10.094 2.13c1.081.229 1.772 1.289 1.544 2.37-.199.941-1.03 1.587-1.955 1.587z"/><path d="m86.666 171.545c-.138 0-.276-.014-.413-.043l-5.871-1.238c-1.081-.229-1.772-1.289-1.544-2.37.229-1.08 1.292-1.768 2.37-1.544l4.895 1.032 3.773-3.286c.832-.726 2.096-.639 2.821.194.726.833.639 2.096-.194 2.821l-4.524 3.941c-.366.321-.834.493-1.313.493z"/><path d="m100.252 159.711c-.558 0-1.113-.232-1.509-.686-.726-.833-.639-2.096.194-2.821l9.061-7.893c.833-.726 2.096-.639 2.822.194s.639 2.096-.194 2.821l-9.061 7.894c-.378.329-.847.491-1.313.491zm18.122-15.787c-.558 0-1.113-.232-1.509-.686-.726-.833-.639-2.096.194-2.821l9.061-7.894c.833-.726 2.096-.639 2.822.194s.639 2.096-.194 2.821l-9.061 7.893c-.379.331-.848.493-1.313.493zm18.121-15.787c-.558 0-1.113-.232-1.509-.687-.725-.833-.639-2.096.194-2.821l3.955-3.445c.226-.196.492-.34.781-.42l6.527-1.806c1.065-.29 2.167.329 2.461 1.395.294 1.064-.33 2.166-1.395 2.461l-6.089 1.685-3.612 3.146c-.379.329-.848.492-1.313.492zm22.061-8.454c-.877 0-1.682-.581-1.927-1.468-.294-1.064.33-2.166 1.395-2.461l11.582-3.204c1.067-.29 2.167.329 2.461 1.395.294 1.064-.33 2.166-1.395 2.461l-11.582 3.204c-.178.049-.358.073-.534.073zm23.163-6.408c-.877 0-1.682-.581-1.927-1.468-.294-1.064.33-2.166 1.395-2.461l11.582-3.204c1.065-.292 2.167.33 2.461 1.395.294 1.064-.33 2.166-1.395 2.461l-11.582 3.204c-.178.049-.358.073-.534.073z"/><path d="m204.883 106.868c-.877 0-1.682-.581-1.927-1.468-.294-1.064.33-2.166 1.395-2.461l5.783-1.6c1.065-.291 2.167.33 2.461 1.395.295 1.064-.33 2.166-1.394 2.461l-5.783 1.6c-.179.048-.359.073-.535.073z"/></g><circle cx="44.643" cy="160.678" fill="#fcc24c" r="8.835"/><path d="m44.643 171.512c-5.974 0-10.834-4.86-10.834-10.834 0-5.975 4.86-10.835 10.834-10.835 5.975 0 10.835 4.86 10.835 10.835 0 5.973-4.86 10.834-10.835 10.834zm0-17.669c-3.769 0-6.834 3.066-6.834 6.835s3.066 6.834 6.834 6.834c3.769 0 6.835-3.065 6.835-6.834s-3.066-6.835-6.835-6.835z" fill="#690589"/><ellipse cx="86.667" cy="169.024" fill="#fcc24c" rx="8.835" ry="8.835" transform="matrix(.924 -.383 .383 .924 -58.085 46.032)"/><path d="m86.667 179.858c-5.974 0-10.834-4.86-10.834-10.835 0-5.974 4.86-10.834 10.834-10.834 5.975 0 10.835 4.86 10.835 10.834-.001 5.975-4.861 10.835-10.835 10.835zm0-17.669c-3.769 0-6.834 3.065-6.834 6.834s3.066 6.835 6.834 6.835c3.769 0 6.835-3.066 6.835-6.835s-3.066-6.834-6.835-6.834z" fill="#690589"/><circle cx="142.069" cy="123.177" fill="#fcc24c" r="8.835"/><path d="m142.069 134.012c-5.975 0-10.835-4.86-10.835-10.834 0-5.975 4.86-10.835 10.835-10.835 5.974 0 10.834 4.86 10.834 10.835.001 5.973-4.86 10.834-10.834 10.834zm0-17.669c-3.769 0-6.835 3.066-6.835 6.835s3.066 6.834 6.835 6.834 6.834-3.065 6.834-6.834-3.065-6.835-6.834-6.835z" fill="#690589"/><circle cx="210.667" cy="103.267" fill="#fcc24c" r="8.835"/><path d="m210.667 114.102c-5.974 0-10.834-4.86-10.834-10.834 0-5.975 4.86-10.835 10.834-10.835 5.975 0 10.835 4.86 10.835 10.835-.001 5.973-4.861 10.834-10.835 10.834zm0-17.669c-3.769 0-6.834 3.066-6.834 6.835s3.066 6.834 6.834 6.834c3.769 0 6.835-3.065 6.835-6.834s-3.066-6.835-6.835-6.835z" fill="#690589"/><path d="m44.643 91.647c17.713 0 28.784 19.175 19.928 34.515l-19.928 34.515-19.927-34.515c-8.857-15.34 2.214-34.515 19.927-34.515z" fill="#ff4397"/><path d="m44.643 162.678c-.714 0-1.375-.381-1.732-1l-19.927-34.516c-4.521-7.83-4.521-17.18 0-25.01 4.521-7.831 12.618-12.506 21.66-12.506s17.139 4.675 21.66 12.505c4.521 7.831 4.521 17.181 0 25.011l-19.928 34.516c-.358.619-1.019 1-1.733 1zm0-69.032c-7.596 0-14.397 3.928-18.195 10.506-3.798 6.577-3.798 14.432 0 21.01l18.195 31.516 18.196-31.516c3.798-6.578 3.797-14.433 0-21.011s-10.6-10.505-18.196-10.505z" fill="#690589"/><circle cx="44.643" cy="114.747" fill="#f4efed" r="9.858"/><path d="m44.643 126.605c-6.539 0-11.858-5.319-11.858-11.858s5.32-11.858 11.858-11.858 11.858 5.319 11.858 11.858-5.319 11.858-11.858 11.858zm0-19.716c-4.333 0-7.858 3.525-7.858 7.858s3.525 7.858 7.858 7.858 7.858-3.525 7.858-7.858-3.525-7.858-7.858-7.858z" fill="#690589"/><path d="m210.667 34.236c17.713 0 28.784 19.175 19.927 34.515l-19.927 34.515-19.928-34.515c-8.856-15.339 2.214-34.515 19.928-34.515z" fill="#ff4397"/><path d="m210.667 105.268c-.714 0-1.375-.381-1.732-1l-19.927-34.516c-4.521-7.83-4.521-17.18 0-25.01 4.521-7.831 12.618-12.506 21.66-12.506s17.139 4.675 21.66 12.505c4.521 7.831 4.521 17.181 0 25.011l-19.928 34.516c-.358.619-1.019 1-1.733 1zm0-69.032c-7.596 0-14.397 3.928-18.195 10.506-3.798 6.577-3.798 14.432 0 21.01l18.195 31.516 18.196-31.516c3.798-6.578 3.797-14.433 0-21.011s-10.601-10.505-18.196-10.505z" fill="#690589"/><circle cx="210.667" cy="57.337" fill="#f4efed" r="9.858"/><path d="m210.667 69.195c-6.539 0-11.858-5.319-11.858-11.858s5.32-11.858 11.858-11.858 11.858 5.319 11.858 11.858-5.32 11.858-11.858 11.858zm0-19.716c-4.333 0-7.858 3.525-7.858 7.858s3.525 7.858 7.858 7.858 7.858-3.525 7.858-7.858-3.525-7.858-7.858-7.858z" fill="#690589"/></svg>